<mxfile host="app.diagrams.net" modified="2024-06-07T10:02:17.982Z" agent="Mozilla/5.0 (Macintosh; Intel Mac OS X 10_15_7) AppleWebKit/537.36 (KHTML, like Gecko) Chrome/125.0.0.0 Safari/537.36" etag="8VtKTk-ZdxY1OD51Cp1N" version="24.4.13" type="github">
  <diagram name="Page-1" id="291TbRZh6zJ7kyGOyx9B">
    <mxGraphModel dx="954" dy="606" grid="1" gridSize="10" guides="1" tooltips="1" connect="1" arrows="1" fold="1" page="1" pageScale="1" pageWidth="850" pageHeight="600" math="0" shadow="0">
      <root>
        <mxCell id="0" />
        <mxCell id="1" parent="0" />
        <mxCell id="-_Ddqsbj2xStbQw_6MxQ-80" value="星型LAN" style="rounded=1;whiteSpace=wrap;html=1;verticalAlign=top;fillColor=none;dashed=1;" parent="1" vertex="1">
          <mxGeometry x="30" y="60" width="330" height="510" as="geometry" />
        </mxCell>
        <mxCell id="-_Ddqsbj2xStbQw_6MxQ-89" value="环形LAN" style="rounded=1;whiteSpace=wrap;html=1;verticalAlign=top;fillColor=none;dashed=1;" parent="1" vertex="1">
          <mxGeometry x="510" y="60" width="330" height="510" as="geometry" />
        </mxCell>
        <mxCell id="-_Ddqsbj2xStbQw_6MxQ-68" value="" style="ellipse;whiteSpace=wrap;html=1;fillColor=none;strokeWidth=5;strokeColor=#C7C7C7;" parent="1" vertex="1">
          <mxGeometry x="550" y="164" width="260" height="320" as="geometry" />
        </mxCell>
        <mxCell id="-_Ddqsbj2xStbQw_6MxQ-17" value="" style="group" parent="1" vertex="1" connectable="0">
          <mxGeometry x="50" y="250" width="120" height="120" as="geometry" />
        </mxCell>
        <mxCell id="-_Ddqsbj2xStbQw_6MxQ-8" value="物理层" style="rounded=0;whiteSpace=wrap;html=1;" parent="-_Ddqsbj2xStbQw_6MxQ-17" vertex="1">
          <mxGeometry y="100" width="120" height="20" as="geometry" />
        </mxCell>
        <mxCell id="-_Ddqsbj2xStbQw_6MxQ-9" value="数据链路层" style="rounded=0;whiteSpace=wrap;html=1;" parent="-_Ddqsbj2xStbQw_6MxQ-17" vertex="1">
          <mxGeometry y="80" width="120" height="20" as="geometry" />
        </mxCell>
        <mxCell id="-_Ddqsbj2xStbQw_6MxQ-10" value="IP" style="rounded=0;whiteSpace=wrap;html=1;" parent="-_Ddqsbj2xStbQw_6MxQ-17" vertex="1">
          <mxGeometry y="60" width="120" height="20" as="geometry" />
        </mxCell>
        <mxCell id="-_Ddqsbj2xStbQw_6MxQ-11" value="TCP/UDP" style="rounded=0;whiteSpace=wrap;html=1;" parent="-_Ddqsbj2xStbQw_6MxQ-17" vertex="1">
          <mxGeometry y="40" width="120" height="20" as="geometry" />
        </mxCell>
        <mxCell id="-_Ddqsbj2xStbQw_6MxQ-12" value="APP" style="rounded=0;whiteSpace=wrap;html=1;" parent="-_Ddqsbj2xStbQw_6MxQ-17" vertex="1">
          <mxGeometry y="20" width="120" height="20" as="geometry" />
        </mxCell>
        <mxCell id="-_Ddqsbj2xStbQw_6MxQ-16" value="主机" style="rounded=0;whiteSpace=wrap;html=1;fontStyle=1;fillColor=#d5e8d4;strokeColor=#82b366;" parent="-_Ddqsbj2xStbQw_6MxQ-17" vertex="1">
          <mxGeometry width="120" height="20" as="geometry" />
        </mxCell>
        <mxCell id="-_Ddqsbj2xStbQw_6MxQ-19" value="" style="group" parent="1" vertex="1" connectable="0">
          <mxGeometry x="230" y="270" width="120" height="60" as="geometry" />
        </mxCell>
        <mxCell id="-_Ddqsbj2xStbQw_6MxQ-4" value="物理层" style="rounded=0;whiteSpace=wrap;html=1;" parent="-_Ddqsbj2xStbQw_6MxQ-19" vertex="1">
          <mxGeometry y="40" width="120" height="20" as="geometry" />
        </mxCell>
        <mxCell id="-_Ddqsbj2xStbQw_6MxQ-5" value="数据链路层" style="rounded=0;whiteSpace=wrap;html=1;" parent="-_Ddqsbj2xStbQw_6MxQ-19" vertex="1">
          <mxGeometry y="20" width="120" height="20" as="geometry" />
        </mxCell>
        <mxCell id="-_Ddqsbj2xStbQw_6MxQ-13" value="交换机/集线器" style="rounded=0;whiteSpace=wrap;html=1;fontStyle=1;fillColor=#dae8fc;strokeColor=#6c8ebf;" parent="-_Ddqsbj2xStbQw_6MxQ-19" vertex="1">
          <mxGeometry width="120" height="20" as="geometry" />
        </mxCell>
        <mxCell id="-_Ddqsbj2xStbQw_6MxQ-28" value="" style="group" parent="1" vertex="1" connectable="0">
          <mxGeometry x="50" y="420" width="120" height="120" as="geometry" />
        </mxCell>
        <mxCell id="-_Ddqsbj2xStbQw_6MxQ-29" value="物理层" style="rounded=0;whiteSpace=wrap;html=1;" parent="-_Ddqsbj2xStbQw_6MxQ-28" vertex="1">
          <mxGeometry y="100" width="120" height="20" as="geometry" />
        </mxCell>
        <mxCell id="-_Ddqsbj2xStbQw_6MxQ-30" value="数据链路层" style="rounded=0;whiteSpace=wrap;html=1;" parent="-_Ddqsbj2xStbQw_6MxQ-28" vertex="1">
          <mxGeometry y="80" width="120" height="20" as="geometry" />
        </mxCell>
        <mxCell id="-_Ddqsbj2xStbQw_6MxQ-31" value="IP" style="rounded=0;whiteSpace=wrap;html=1;" parent="-_Ddqsbj2xStbQw_6MxQ-28" vertex="1">
          <mxGeometry y="60" width="120" height="20" as="geometry" />
        </mxCell>
        <mxCell id="-_Ddqsbj2xStbQw_6MxQ-32" value="TCP/UDP" style="rounded=0;whiteSpace=wrap;html=1;" parent="-_Ddqsbj2xStbQw_6MxQ-28" vertex="1">
          <mxGeometry y="40" width="120" height="20" as="geometry" />
        </mxCell>
        <mxCell id="-_Ddqsbj2xStbQw_6MxQ-33" value="APP" style="rounded=0;whiteSpace=wrap;html=1;" parent="-_Ddqsbj2xStbQw_6MxQ-28" vertex="1">
          <mxGeometry y="20" width="120" height="20" as="geometry" />
        </mxCell>
        <mxCell id="-_Ddqsbj2xStbQw_6MxQ-34" value="主机" style="rounded=0;whiteSpace=wrap;html=1;fontStyle=1;fillColor=#d5e8d4;strokeColor=#82b366;" parent="-_Ddqsbj2xStbQw_6MxQ-28" vertex="1">
          <mxGeometry width="120" height="20" as="geometry" />
        </mxCell>
        <mxCell id="-_Ddqsbj2xStbQw_6MxQ-35" value="" style="group;fillColor=#d5e8d4;strokeColor=#82b366;" parent="1" vertex="1" connectable="0">
          <mxGeometry x="710" y="104" width="120" height="120" as="geometry" />
        </mxCell>
        <mxCell id="-_Ddqsbj2xStbQw_6MxQ-36" value="物理层" style="rounded=0;whiteSpace=wrap;html=1;" parent="-_Ddqsbj2xStbQw_6MxQ-35" vertex="1">
          <mxGeometry y="100" width="120" height="20" as="geometry" />
        </mxCell>
        <mxCell id="-_Ddqsbj2xStbQw_6MxQ-37" value="数据链路层" style="rounded=0;whiteSpace=wrap;html=1;" parent="-_Ddqsbj2xStbQw_6MxQ-35" vertex="1">
          <mxGeometry y="80" width="120" height="20" as="geometry" />
        </mxCell>
        <mxCell id="-_Ddqsbj2xStbQw_6MxQ-38" value="IP" style="rounded=0;whiteSpace=wrap;html=1;" parent="-_Ddqsbj2xStbQw_6MxQ-35" vertex="1">
          <mxGeometry y="60" width="120" height="20" as="geometry" />
        </mxCell>
        <mxCell id="-_Ddqsbj2xStbQw_6MxQ-39" value="TCP/UDP" style="rounded=0;whiteSpace=wrap;html=1;" parent="-_Ddqsbj2xStbQw_6MxQ-35" vertex="1">
          <mxGeometry y="40" width="120" height="20" as="geometry" />
        </mxCell>
        <mxCell id="-_Ddqsbj2xStbQw_6MxQ-40" value="APP" style="rounded=0;whiteSpace=wrap;html=1;" parent="-_Ddqsbj2xStbQw_6MxQ-35" vertex="1">
          <mxGeometry y="20" width="120" height="20" as="geometry" />
        </mxCell>
        <mxCell id="-_Ddqsbj2xStbQw_6MxQ-41" value="主机" style="rounded=0;whiteSpace=wrap;html=1;fontStyle=1;fillColor=#d5e8d4;strokeColor=#82b366;" parent="-_Ddqsbj2xStbQw_6MxQ-35" vertex="1">
          <mxGeometry width="120" height="20" as="geometry" />
        </mxCell>
        <mxCell id="-_Ddqsbj2xStbQw_6MxQ-49" value="" style="group" parent="1" vertex="1" connectable="0">
          <mxGeometry x="520" y="374" width="120" height="120" as="geometry" />
        </mxCell>
        <mxCell id="-_Ddqsbj2xStbQw_6MxQ-50" value="物理层" style="rounded=0;whiteSpace=wrap;html=1;" parent="-_Ddqsbj2xStbQw_6MxQ-49" vertex="1">
          <mxGeometry y="100" width="120" height="20" as="geometry" />
        </mxCell>
        <mxCell id="-_Ddqsbj2xStbQw_6MxQ-51" value="数据链路层" style="rounded=0;whiteSpace=wrap;html=1;" parent="-_Ddqsbj2xStbQw_6MxQ-49" vertex="1">
          <mxGeometry y="80" width="120" height="20" as="geometry" />
        </mxCell>
        <mxCell id="-_Ddqsbj2xStbQw_6MxQ-52" value="IP" style="rounded=0;whiteSpace=wrap;html=1;" parent="-_Ddqsbj2xStbQw_6MxQ-49" vertex="1">
          <mxGeometry y="60" width="120" height="20" as="geometry" />
        </mxCell>
        <mxCell id="-_Ddqsbj2xStbQw_6MxQ-53" value="TCP/UDP" style="rounded=0;whiteSpace=wrap;html=1;" parent="-_Ddqsbj2xStbQw_6MxQ-49" vertex="1">
          <mxGeometry y="40" width="120" height="20" as="geometry" />
        </mxCell>
        <mxCell id="-_Ddqsbj2xStbQw_6MxQ-54" value="APP" style="rounded=0;whiteSpace=wrap;html=1;" parent="-_Ddqsbj2xStbQw_6MxQ-49" vertex="1">
          <mxGeometry y="20" width="120" height="20" as="geometry" />
        </mxCell>
        <mxCell id="-_Ddqsbj2xStbQw_6MxQ-55" value="主机" style="rounded=0;whiteSpace=wrap;html=1;fontStyle=1;fillColor=#d5e8d4;strokeColor=#82b366;" parent="-_Ddqsbj2xStbQw_6MxQ-49" vertex="1">
          <mxGeometry width="120" height="20" as="geometry" />
        </mxCell>
        <mxCell id="-_Ddqsbj2xStbQw_6MxQ-56" value="" style="group" parent="1" vertex="1" connectable="0">
          <mxGeometry x="710" y="374" width="120" height="120" as="geometry" />
        </mxCell>
        <mxCell id="-_Ddqsbj2xStbQw_6MxQ-57" value="物理层" style="rounded=0;whiteSpace=wrap;html=1;" parent="-_Ddqsbj2xStbQw_6MxQ-56" vertex="1">
          <mxGeometry y="100" width="120" height="20" as="geometry" />
        </mxCell>
        <mxCell id="-_Ddqsbj2xStbQw_6MxQ-58" value="数据链路层" style="rounded=0;whiteSpace=wrap;html=1;" parent="-_Ddqsbj2xStbQw_6MxQ-56" vertex="1">
          <mxGeometry y="80" width="120" height="20" as="geometry" />
        </mxCell>
        <mxCell id="-_Ddqsbj2xStbQw_6MxQ-59" value="IP" style="rounded=0;whiteSpace=wrap;html=1;" parent="-_Ddqsbj2xStbQw_6MxQ-56" vertex="1">
          <mxGeometry y="60" width="120" height="20" as="geometry" />
        </mxCell>
        <mxCell id="-_Ddqsbj2xStbQw_6MxQ-60" value="TCP/UDP" style="rounded=0;whiteSpace=wrap;html=1;" parent="-_Ddqsbj2xStbQw_6MxQ-56" vertex="1">
          <mxGeometry y="40" width="120" height="20" as="geometry" />
        </mxCell>
        <mxCell id="-_Ddqsbj2xStbQw_6MxQ-61" value="APP" style="rounded=0;whiteSpace=wrap;html=1;" parent="-_Ddqsbj2xStbQw_6MxQ-56" vertex="1">
          <mxGeometry y="20" width="120" height="20" as="geometry" />
        </mxCell>
        <mxCell id="-_Ddqsbj2xStbQw_6MxQ-62" value="主机" style="rounded=0;whiteSpace=wrap;html=1;fontStyle=1;fillColor=#d5e8d4;strokeColor=#82b366;" parent="-_Ddqsbj2xStbQw_6MxQ-56" vertex="1">
          <mxGeometry width="120" height="20" as="geometry" />
        </mxCell>
        <mxCell id="-_Ddqsbj2xStbQw_6MxQ-64" value="" style="edgeStyle=orthogonalEdgeStyle;rounded=0;orthogonalLoop=1;jettySize=auto;html=1;entryX=1;entryY=0.5;entryDx=0;entryDy=0;endArrow=none;endFill=0;" parent="1" source="-_Ddqsbj2xStbQw_6MxQ-5" target="-_Ddqsbj2xStbQw_6MxQ-23" edge="1">
          <mxGeometry relative="1" as="geometry" />
        </mxCell>
        <mxCell id="-_Ddqsbj2xStbQw_6MxQ-65" style="edgeStyle=orthogonalEdgeStyle;rounded=0;orthogonalLoop=1;jettySize=auto;html=1;entryX=1;entryY=0.5;entryDx=0;entryDy=0;endArrow=none;endFill=0;" parent="1" source="-_Ddqsbj2xStbQw_6MxQ-5" target="-_Ddqsbj2xStbQw_6MxQ-9" edge="1">
          <mxGeometry relative="1" as="geometry" />
        </mxCell>
        <mxCell id="-_Ddqsbj2xStbQw_6MxQ-66" style="edgeStyle=orthogonalEdgeStyle;rounded=0;orthogonalLoop=1;jettySize=auto;html=1;entryX=1;entryY=0.5;entryDx=0;entryDy=0;endArrow=none;endFill=0;" parent="1" source="-_Ddqsbj2xStbQw_6MxQ-5" target="-_Ddqsbj2xStbQw_6MxQ-30" edge="1">
          <mxGeometry relative="1" as="geometry" />
        </mxCell>
        <mxCell id="-_Ddqsbj2xStbQw_6MxQ-75" value="" style="endArrow=none;html=1;rounded=0;exitX=1;exitY=0.5;exitDx=0;exitDy=0;entryX=0;entryY=0.5;entryDx=0;entryDy=0;" parent="1" source="-_Ddqsbj2xStbQw_6MxQ-5" target="-_Ddqsbj2xStbQw_6MxQ-2" edge="1">
          <mxGeometry width="50" height="50" relative="1" as="geometry">
            <mxPoint x="370" y="340" as="sourcePoint" />
            <mxPoint x="420" y="290" as="targetPoint" />
          </mxGeometry>
        </mxCell>
        <mxCell id="-_Ddqsbj2xStbQw_6MxQ-77" value="" style="endArrow=none;html=1;rounded=0;entryX=0.008;entryY=0.478;entryDx=0;entryDy=0;entryPerimeter=0;" parent="1" edge="1">
          <mxGeometry width="50" height="50" relative="1" as="geometry">
            <mxPoint x="497.92" y="299.5" as="sourcePoint" />
            <mxPoint x="549.9999999999999" y="300.46000000000004" as="targetPoint" />
          </mxGeometry>
        </mxCell>
        <mxCell id="-_Ddqsbj2xStbQw_6MxQ-43" value="物理层" style="rounded=0;whiteSpace=wrap;html=1;" parent="1" vertex="1">
          <mxGeometry x="520" y="204" width="120" height="20" as="geometry" />
        </mxCell>
        <mxCell id="-_Ddqsbj2xStbQw_6MxQ-44" value="数据链路层" style="rounded=0;whiteSpace=wrap;html=1;" parent="1" vertex="1">
          <mxGeometry x="520" y="184" width="120" height="20" as="geometry" />
        </mxCell>
        <mxCell id="-_Ddqsbj2xStbQw_6MxQ-45" value="IP" style="rounded=0;whiteSpace=wrap;html=1;" parent="1" vertex="1">
          <mxGeometry x="520" y="164" width="120" height="20" as="geometry" />
        </mxCell>
        <mxCell id="-_Ddqsbj2xStbQw_6MxQ-46" value="TCP/UDP" style="rounded=0;whiteSpace=wrap;html=1;" parent="1" vertex="1">
          <mxGeometry x="520" y="144" width="120" height="20" as="geometry" />
        </mxCell>
        <mxCell id="-_Ddqsbj2xStbQw_6MxQ-47" value="APP" style="rounded=0;whiteSpace=wrap;html=1;" parent="1" vertex="1">
          <mxGeometry x="520" y="124" width="120" height="20" as="geometry" />
        </mxCell>
        <mxCell id="-_Ddqsbj2xStbQw_6MxQ-48" value="主机" style="rounded=0;whiteSpace=wrap;html=1;fontStyle=1;fillColor=#d5e8d4;strokeColor=#82b366;" parent="1" vertex="1">
          <mxGeometry x="520" y="104" width="120" height="20" as="geometry" />
        </mxCell>
        <mxCell id="-_Ddqsbj2xStbQw_6MxQ-1" value="物理层" style="rounded=0;whiteSpace=wrap;html=1;fontSize=10;" parent="1" vertex="1">
          <mxGeometry x="435" y="310" width="60" height="20" as="geometry" />
        </mxCell>
        <mxCell id="-_Ddqsbj2xStbQw_6MxQ-2" value="数据链路层" style="rounded=0;whiteSpace=wrap;html=1;fontSize=10;" parent="1" vertex="1">
          <mxGeometry x="375" y="290" width="60" height="20" as="geometry" />
        </mxCell>
        <mxCell id="-_Ddqsbj2xStbQw_6MxQ-3" value="IP" style="rounded=0;whiteSpace=wrap;html=1;" parent="1" vertex="1">
          <mxGeometry x="375" y="270" width="120" height="20" as="geometry" />
        </mxCell>
        <mxCell id="-_Ddqsbj2xStbQw_6MxQ-15" value="路由器/三层交换机" style="rounded=0;whiteSpace=wrap;html=1;fontStyle=1;fillColor=#dae8fc;strokeColor=#6c8ebf;" parent="1" vertex="1">
          <mxGeometry x="375" y="250" width="120" height="20" as="geometry" />
        </mxCell>
        <mxCell id="-_Ddqsbj2xStbQw_6MxQ-78" value="数据链路层" style="rounded=0;whiteSpace=wrap;html=1;fontSize=10;" parent="1" vertex="1">
          <mxGeometry x="435" y="290" width="60" height="20" as="geometry" />
        </mxCell>
        <mxCell id="-_Ddqsbj2xStbQw_6MxQ-79" value="物理层" style="rounded=0;whiteSpace=wrap;html=1;fontSize=10;" parent="1" vertex="1">
          <mxGeometry x="375" y="310" width="60" height="20" as="geometry" />
        </mxCell>
        <mxCell id="-_Ddqsbj2xStbQw_6MxQ-22" value="物理层" style="rounded=0;whiteSpace=wrap;html=1;" parent="1" vertex="1">
          <mxGeometry x="50" y="190" width="120" height="20" as="geometry" />
        </mxCell>
        <mxCell id="-_Ddqsbj2xStbQw_6MxQ-23" value="数据链路层" style="rounded=0;whiteSpace=wrap;html=1;" parent="1" vertex="1">
          <mxGeometry x="50" y="170" width="120" height="20" as="geometry" />
        </mxCell>
        <mxCell id="-_Ddqsbj2xStbQw_6MxQ-24" value="IP" style="rounded=0;whiteSpace=wrap;html=1;" parent="1" vertex="1">
          <mxGeometry x="50" y="150" width="120" height="20" as="geometry" />
        </mxCell>
        <mxCell id="-_Ddqsbj2xStbQw_6MxQ-25" value="TCP/UDP" style="rounded=0;whiteSpace=wrap;html=1;" parent="1" vertex="1">
          <mxGeometry x="50" y="130" width="120" height="20" as="geometry" />
        </mxCell>
        <mxCell id="-_Ddqsbj2xStbQw_6MxQ-26" value="APP" style="rounded=0;whiteSpace=wrap;html=1;" parent="1" vertex="1">
          <mxGeometry x="50" y="110" width="120" height="20" as="geometry" />
        </mxCell>
        <mxCell id="-_Ddqsbj2xStbQw_6MxQ-27" value="主机" style="rounded=0;whiteSpace=wrap;html=1;fontStyle=1;fillColor=#d5e8d4;strokeColor=#82b366;" parent="1" vertex="1">
          <mxGeometry x="50" y="90" width="120" height="20" as="geometry" />
        </mxCell>
        <mxCell id="-_Ddqsbj2xStbQw_6MxQ-90" value="&lt;h1 style=&quot;margin-top: 0px;&quot;&gt;LANs InterConnection&lt;/h1&gt;" style="text;html=1;whiteSpace=wrap;overflow=hidden;rounded=0;" parent="1" vertex="1">
          <mxGeometry x="30" y="10" width="460" height="40" as="geometry" />
        </mxCell>
        <mxCell id="GwMLZLMW36V3GU0Clauz-9" value="TCP" style="rounded=0;whiteSpace=wrap;html=1;fontStyle=1" vertex="1" parent="1">
          <mxGeometry x="10.25" y="790" width="60" height="30" as="geometry" />
        </mxCell>
        <mxCell id="GwMLZLMW36V3GU0Clauz-10" value="Payload" style="rounded=0;whiteSpace=wrap;html=1;fillColor=#dae8fc;strokeColor=#6c8ebf;" vertex="1" parent="1">
          <mxGeometry x="130.25" y="790" width="130" height="30" as="geometry" />
        </mxCell>
        <mxCell id="GwMLZLMW36V3GU0Clauz-11" value="Ethernet" style="rounded=0;whiteSpace=wrap;html=1;" vertex="1" parent="1">
          <mxGeometry x="45" y="1060" width="90" height="30" as="geometry" />
        </mxCell>
        <mxCell id="GwMLZLMW36V3GU0Clauz-12" value="IP" style="rounded=0;whiteSpace=wrap;html=1;" vertex="1" parent="1">
          <mxGeometry x="135" y="1060" width="90" height="30" as="geometry" />
        </mxCell>
        <mxCell id="GwMLZLMW36V3GU0Clauz-13" value="Ethernet" style="rounded=0;whiteSpace=wrap;html=1;" vertex="1" parent="1">
          <mxGeometry x="225" y="1060" width="90" height="30" as="geometry" />
        </mxCell>
        <mxCell id="GwMLZLMW36V3GU0Clauz-23" value="HTTP" style="rounded=0;whiteSpace=wrap;html=1;fillColor=#dae8fc;strokeColor=#6c8ebf;" vertex="1" parent="1">
          <mxGeometry x="130.25" y="850" width="60" height="30" as="geometry" />
        </mxCell>
        <mxCell id="GwMLZLMW36V3GU0Clauz-24" value="Payload" style="rounded=0;whiteSpace=wrap;html=1;fillColor=#dae8fc;strokeColor=#6c8ebf;" vertex="1" parent="1">
          <mxGeometry x="190.25" y="850" width="130" height="30" as="geometry" />
        </mxCell>
        <mxCell id="GwMLZLMW36V3GU0Clauz-25" value="IP" style="rounded=0;whiteSpace=wrap;html=1;fontStyle=1" vertex="1" parent="1">
          <mxGeometry x="10.25" y="850" width="60" height="30" as="geometry" />
        </mxCell>
        <mxCell id="GwMLZLMW36V3GU0Clauz-27" value="Payload" style="rounded=0;whiteSpace=wrap;html=1;fillColor=#dae8fc;strokeColor=#6c8ebf;" vertex="1" parent="1">
          <mxGeometry x="250.25" y="910" width="130" height="30" as="geometry" />
        </mxCell>
        <mxCell id="GwMLZLMW36V3GU0Clauz-28" value="IP" style="rounded=0;whiteSpace=wrap;html=1;fillColor=#dae8fc;strokeColor=#6c8ebf;" vertex="1" parent="1">
          <mxGeometry x="70.25" y="910" width="60" height="30" as="geometry" />
        </mxCell>
        <mxCell id="GwMLZLMW36V3GU0Clauz-29" value="Ethernet" style="rounded=0;whiteSpace=wrap;html=1;fontStyle=1" vertex="1" parent="1">
          <mxGeometry x="10.25" y="910" width="60" height="30" as="geometry" />
        </mxCell>
        <mxCell id="GwMLZLMW36V3GU0Clauz-32" value="" style="endArrow=async;html=1;rounded=0;exitX=0;exitY=1;exitDx=0;exitDy=0;entryX=1;entryY=0;entryDx=0;entryDy=0;endFill=1;dashed=1;curved=1;" edge="1" parent="1" target="GwMLZLMW36V3GU0Clauz-10">
          <mxGeometry width="50" height="50" relative="1" as="geometry">
            <mxPoint x="200.25" y="760" as="sourcePoint" />
            <mxPoint x="290.25" y="790" as="targetPoint" />
          </mxGeometry>
        </mxCell>
        <mxCell id="GwMLZLMW36V3GU0Clauz-53" value="Frame" style="rounded=0;whiteSpace=wrap;html=1;" vertex="1" parent="1">
          <mxGeometry x="315" y="1060" width="175" height="30" as="geometry" />
        </mxCell>
        <mxCell id="GwMLZLMW36V3GU0Clauz-56" value="HTTP" style="rounded=0;whiteSpace=wrap;html=1;fontStyle=1" vertex="1" parent="1">
          <mxGeometry x="10.25" y="730" width="60" height="30" as="geometry" />
        </mxCell>
        <mxCell id="GwMLZLMW36V3GU0Clauz-57" value="Payload" style="rounded=0;whiteSpace=wrap;html=1;fillColor=#dae8fc;strokeColor=#6c8ebf;" vertex="1" parent="1">
          <mxGeometry x="70.25" y="730" width="130" height="30" as="geometry" />
        </mxCell>
        <mxCell id="GwMLZLMW36V3GU0Clauz-58" value="" style="endArrow=async;html=1;rounded=0;exitX=0;exitY=1;exitDx=0;exitDy=0;entryX=0;entryY=0;entryDx=0;entryDy=0;endFill=1;dashed=1;curved=1;" edge="1" parent="1" target="GwMLZLMW36V3GU0Clauz-62">
          <mxGeometry width="50" height="50" relative="1" as="geometry">
            <mxPoint x="10.25" y="760" as="sourcePoint" />
            <mxPoint x="100.25" y="790" as="targetPoint" />
          </mxGeometry>
        </mxCell>
        <mxCell id="GwMLZLMW36V3GU0Clauz-60" value="TCP" style="rounded=0;whiteSpace=wrap;html=1;fillColor=#dae8fc;strokeColor=#6c8ebf;" vertex="1" parent="1">
          <mxGeometry x="70.25" y="850" width="60" height="30" as="geometry" />
        </mxCell>
        <mxCell id="GwMLZLMW36V3GU0Clauz-62" value="HTTP" style="rounded=0;whiteSpace=wrap;html=1;fillColor=#dae8fc;strokeColor=#6c8ebf;" vertex="1" parent="1">
          <mxGeometry x="70.25" y="790" width="60" height="30" as="geometry" />
        </mxCell>
        <mxCell id="GwMLZLMW36V3GU0Clauz-65" value="HTTP" style="rounded=0;whiteSpace=wrap;html=1;fillColor=#dae8fc;strokeColor=#6c8ebf;" vertex="1" parent="1">
          <mxGeometry x="190.25" y="910" width="60" height="30" as="geometry" />
        </mxCell>
        <mxCell id="GwMLZLMW36V3GU0Clauz-111" style="edgeStyle=orthogonalEdgeStyle;rounded=0;orthogonalLoop=1;jettySize=auto;html=1;entryX=0.5;entryY=1;entryDx=0;entryDy=0;exitX=0.5;exitY=1;exitDx=0;exitDy=0;" edge="1" parent="1" source="GwMLZLMW36V3GU0Clauz-66" target="GwMLZLMW36V3GU0Clauz-99">
          <mxGeometry relative="1" as="geometry">
            <Array as="points">
              <mxPoint x="160.25" y="970" />
              <mxPoint x="679.25" y="970" />
            </Array>
          </mxGeometry>
        </mxCell>
        <mxCell id="GwMLZLMW36V3GU0Clauz-66" value="TCP" style="rounded=0;whiteSpace=wrap;html=1;fillColor=#dae8fc;strokeColor=#6c8ebf;" vertex="1" parent="1">
          <mxGeometry x="130.25" y="910" width="60" height="30" as="geometry" />
        </mxCell>
        <mxCell id="GwMLZLMW36V3GU0Clauz-67" value="" style="endArrow=async;html=1;rounded=0;exitX=0;exitY=1;exitDx=0;exitDy=0;entryX=1;entryY=0;entryDx=0;entryDy=0;endFill=1;dashed=1;curved=1;" edge="1" parent="1">
          <mxGeometry width="50" height="50" relative="1" as="geometry">
            <mxPoint x="260.25" y="820" as="sourcePoint" />
            <mxPoint x="320.25" y="850" as="targetPoint" />
          </mxGeometry>
        </mxCell>
        <mxCell id="GwMLZLMW36V3GU0Clauz-68" value="" style="endArrow=async;html=1;rounded=0;exitX=0;exitY=1;exitDx=0;exitDy=0;entryX=0;entryY=0;entryDx=0;entryDy=0;endFill=1;dashed=1;curved=1;" edge="1" parent="1">
          <mxGeometry width="50" height="50" relative="1" as="geometry">
            <mxPoint x="10.25" y="820" as="sourcePoint" />
            <mxPoint x="70.25" y="850" as="targetPoint" />
          </mxGeometry>
        </mxCell>
        <mxCell id="GwMLZLMW36V3GU0Clauz-69" value="" style="endArrow=async;html=1;rounded=0;exitX=0;exitY=1;exitDx=0;exitDy=0;entryX=1;entryY=0;entryDx=0;entryDy=0;endFill=1;dashed=1;curved=1;" edge="1" parent="1">
          <mxGeometry width="50" height="50" relative="1" as="geometry">
            <mxPoint x="320.25" y="880" as="sourcePoint" />
            <mxPoint x="380.25" y="910" as="targetPoint" />
          </mxGeometry>
        </mxCell>
        <mxCell id="GwMLZLMW36V3GU0Clauz-70" value="" style="endArrow=async;html=1;rounded=0;exitX=0;exitY=1;exitDx=0;exitDy=0;entryX=0;entryY=0;entryDx=0;entryDy=0;endFill=1;dashed=1;curved=1;" edge="1" parent="1">
          <mxGeometry width="50" height="50" relative="1" as="geometry">
            <mxPoint x="10.25" y="880" as="sourcePoint" />
            <mxPoint x="70.25" y="910" as="targetPoint" />
          </mxGeometry>
        </mxCell>
        <mxCell id="GwMLZLMW36V3GU0Clauz-71" value="Segment" style="text;html=1;align=center;verticalAlign=middle;whiteSpace=wrap;rounded=0;shadow=0;textShadow=1;horizontal=1;fontStyle=2;fontFamily=Comic Sans MS;" vertex="1" parent="1">
          <mxGeometry x="110.25" y="762" width="60" height="20" as="geometry" />
        </mxCell>
        <mxCell id="GwMLZLMW36V3GU0Clauz-82" value="Packet" style="text;html=1;align=center;verticalAlign=middle;whiteSpace=wrap;rounded=0;shadow=0;textShadow=1;horizontal=1;fontStyle=2;fontFamily=Comic Sans MS;" vertex="1" parent="1">
          <mxGeometry x="138.25" y="824" width="60" height="20" as="geometry" />
        </mxCell>
        <mxCell id="GwMLZLMW36V3GU0Clauz-83" value="Frame" style="text;html=1;align=center;verticalAlign=middle;whiteSpace=wrap;rounded=0;shadow=0;textShadow=1;horizontal=1;fontStyle=2;fontFamily=Comic Sans MS;" vertex="1" parent="1">
          <mxGeometry x="165.25" y="885" width="60" height="20" as="geometry" />
        </mxCell>
        <mxCell id="GwMLZLMW36V3GU0Clauz-85" value="TCP" style="rounded=0;whiteSpace=wrap;html=1;fontStyle=1" vertex="1" parent="1">
          <mxGeometry x="589" y="790" width="60" height="30" as="geometry" />
        </mxCell>
        <mxCell id="GwMLZLMW36V3GU0Clauz-86" value="Payload" style="rounded=0;whiteSpace=wrap;html=1;fillColor=#dae8fc;strokeColor=#6c8ebf;" vertex="1" parent="1">
          <mxGeometry x="709" y="790" width="130" height="30" as="geometry" />
        </mxCell>
        <mxCell id="GwMLZLMW36V3GU0Clauz-87" value="HTTP" style="rounded=0;whiteSpace=wrap;html=1;fillColor=#dae8fc;strokeColor=#6c8ebf;" vertex="1" parent="1">
          <mxGeometry x="649.25" y="850" width="60" height="30" as="geometry" />
        </mxCell>
        <mxCell id="GwMLZLMW36V3GU0Clauz-88" value="Payload" style="rounded=0;whiteSpace=wrap;html=1;fillColor=#dae8fc;strokeColor=#6c8ebf;" vertex="1" parent="1">
          <mxGeometry x="709.25" y="850" width="130" height="30" as="geometry" />
        </mxCell>
        <mxCell id="GwMLZLMW36V3GU0Clauz-89" value="IP" style="rounded=0;whiteSpace=wrap;html=1;fontStyle=1" vertex="1" parent="1">
          <mxGeometry x="529.25" y="850" width="60" height="30" as="geometry" />
        </mxCell>
        <mxCell id="GwMLZLMW36V3GU0Clauz-90" value="Payload" style="rounded=0;whiteSpace=wrap;html=1;fillColor=#dae8fc;strokeColor=#6c8ebf;" vertex="1" parent="1">
          <mxGeometry x="709" y="910" width="130" height="30" as="geometry" />
        </mxCell>
        <mxCell id="GwMLZLMW36V3GU0Clauz-91" value="IP" style="rounded=0;whiteSpace=wrap;html=1;fillColor=#dae8fc;strokeColor=#6c8ebf;" vertex="1" parent="1">
          <mxGeometry x="529" y="910" width="60" height="30" as="geometry" />
        </mxCell>
        <mxCell id="GwMLZLMW36V3GU0Clauz-92" value="Ethernet" style="rounded=0;whiteSpace=wrap;html=1;fontStyle=1" vertex="1" parent="1">
          <mxGeometry x="469" y="910" width="60" height="30" as="geometry" />
        </mxCell>
        <mxCell id="GwMLZLMW36V3GU0Clauz-93" value="" style="endArrow=none;html=1;rounded=0;exitX=1;exitY=1;exitDx=0;exitDy=0;entryX=1;entryY=0;entryDx=0;entryDy=0;endFill=0;dashed=1;curved=1;startArrow=async;startFill=1;" edge="1" parent="1" target="GwMLZLMW36V3GU0Clauz-86" source="GwMLZLMW36V3GU0Clauz-95">
          <mxGeometry width="50" height="50" relative="1" as="geometry">
            <mxPoint x="715" y="760" as="sourcePoint" />
            <mxPoint x="805" y="790" as="targetPoint" />
          </mxGeometry>
        </mxCell>
        <mxCell id="GwMLZLMW36V3GU0Clauz-94" value="HTTP" style="rounded=0;whiteSpace=wrap;html=1;fontStyle=1" vertex="1" parent="1">
          <mxGeometry x="649" y="730" width="60" height="30" as="geometry" />
        </mxCell>
        <mxCell id="GwMLZLMW36V3GU0Clauz-95" value="Payload" style="rounded=0;whiteSpace=wrap;html=1;fillColor=#dae8fc;strokeColor=#6c8ebf;" vertex="1" parent="1">
          <mxGeometry x="709" y="730" width="130" height="30" as="geometry" />
        </mxCell>
        <mxCell id="GwMLZLMW36V3GU0Clauz-96" value="" style="endArrow=none;html=1;rounded=0;entryX=0;entryY=0;entryDx=0;entryDy=0;endFill=0;dashed=1;curved=1;startArrow=async;startFill=1;exitX=0;exitY=1;exitDx=0;exitDy=0;" edge="1" parent="1" target="GwMLZLMW36V3GU0Clauz-98" source="GwMLZLMW36V3GU0Clauz-94">
          <mxGeometry width="50" height="50" relative="1" as="geometry">
            <mxPoint x="589.25" y="750" as="sourcePoint" />
            <mxPoint x="615" y="790" as="targetPoint" />
          </mxGeometry>
        </mxCell>
        <mxCell id="GwMLZLMW36V3GU0Clauz-97" value="TCP" style="rounded=0;whiteSpace=wrap;html=1;fillColor=#dae8fc;strokeColor=#6c8ebf;" vertex="1" parent="1">
          <mxGeometry x="589.25" y="850" width="60" height="30" as="geometry" />
        </mxCell>
        <mxCell id="GwMLZLMW36V3GU0Clauz-98" value="HTTP" style="rounded=0;whiteSpace=wrap;html=1;fillColor=#dae8fc;strokeColor=#6c8ebf;" vertex="1" parent="1">
          <mxGeometry x="649" y="790" width="60" height="30" as="geometry" />
        </mxCell>
        <mxCell id="GwMLZLMW36V3GU0Clauz-99" value="HTTP" style="rounded=0;whiteSpace=wrap;html=1;fillColor=#dae8fc;strokeColor=#6c8ebf;" vertex="1" parent="1">
          <mxGeometry x="649" y="910" width="60" height="30" as="geometry" />
        </mxCell>
        <mxCell id="GwMLZLMW36V3GU0Clauz-100" value="TCP" style="rounded=0;whiteSpace=wrap;html=1;fillColor=#dae8fc;strokeColor=#6c8ebf;" vertex="1" parent="1">
          <mxGeometry x="589" y="910" width="60" height="30" as="geometry" />
        </mxCell>
        <mxCell id="GwMLZLMW36V3GU0Clauz-101" value="" style="endArrow=none;html=1;rounded=0;exitX=1;exitY=1;exitDx=0;exitDy=0;entryX=1;entryY=0;entryDx=0;entryDy=0;endFill=0;dashed=1;curved=1;startArrow=async;startFill=1;" edge="1" parent="1" source="GwMLZLMW36V3GU0Clauz-86" target="GwMLZLMW36V3GU0Clauz-88">
          <mxGeometry width="50" height="50" relative="1" as="geometry">
            <mxPoint x="775" y="820" as="sourcePoint" />
            <mxPoint x="835" y="850" as="targetPoint" />
          </mxGeometry>
        </mxCell>
        <mxCell id="GwMLZLMW36V3GU0Clauz-102" value="" style="endArrow=none;html=1;rounded=0;exitX=0;exitY=1;exitDx=0;exitDy=0;entryX=0;entryY=0;entryDx=0;entryDy=0;endFill=0;dashed=1;curved=1;startArrow=async;startFill=1;" edge="1" parent="1" source="GwMLZLMW36V3GU0Clauz-85" target="GwMLZLMW36V3GU0Clauz-97">
          <mxGeometry width="50" height="50" relative="1" as="geometry">
            <mxPoint x="525" y="820" as="sourcePoint" />
            <mxPoint x="585" y="850" as="targetPoint" />
          </mxGeometry>
        </mxCell>
        <mxCell id="GwMLZLMW36V3GU0Clauz-103" value="" style="endArrow=none;html=1;rounded=0;entryX=1;entryY=0;entryDx=0;entryDy=0;endFill=0;dashed=1;curved=1;startArrow=async;startFill=1;exitX=1;exitY=1;exitDx=0;exitDy=0;" edge="1" parent="1" source="GwMLZLMW36V3GU0Clauz-88">
          <mxGeometry width="50" height="50" relative="1" as="geometry">
            <mxPoint x="779" y="880" as="sourcePoint" />
            <mxPoint x="839" y="910" as="targetPoint" />
          </mxGeometry>
        </mxCell>
        <mxCell id="GwMLZLMW36V3GU0Clauz-104" value="" style="endArrow=none;html=1;rounded=0;entryX=0;entryY=0;entryDx=0;entryDy=0;endFill=0;dashed=1;curved=1;startArrow=async;startFill=1;" edge="1" parent="1">
          <mxGeometry width="50" height="50" relative="1" as="geometry">
            <mxPoint x="529.25" y="880" as="sourcePoint" />
            <mxPoint x="529" y="910" as="targetPoint" />
          </mxGeometry>
        </mxCell>
        <mxCell id="GwMLZLMW36V3GU0Clauz-105" value="Segment" style="text;html=1;align=center;verticalAlign=middle;whiteSpace=wrap;rounded=0;shadow=0;textShadow=1;horizontal=1;fontStyle=2;fontFamily=Comic Sans MS;" vertex="1" parent="1">
          <mxGeometry x="709" y="762" width="60" height="20" as="geometry" />
        </mxCell>
        <mxCell id="GwMLZLMW36V3GU0Clauz-106" value="Packet" style="text;html=1;align=center;verticalAlign=middle;whiteSpace=wrap;rounded=0;shadow=0;textShadow=1;horizontal=1;fontStyle=2;fontFamily=Comic Sans MS;" vertex="1" parent="1">
          <mxGeometry x="689.25" y="824" width="60" height="20" as="geometry" />
        </mxCell>
        <mxCell id="GwMLZLMW36V3GU0Clauz-107" value="Frame" style="text;html=1;align=center;verticalAlign=middle;whiteSpace=wrap;rounded=0;shadow=0;textShadow=1;horizontal=1;fontStyle=2;fontFamily=Comic Sans MS;" vertex="1" parent="1">
          <mxGeometry x="653" y="885" width="60" height="20" as="geometry" />
        </mxCell>
        <mxCell id="GwMLZLMW36V3GU0Clauz-51" value="" style="shape=cylinder3;whiteSpace=wrap;html=1;boundedLbl=1;backgroundOutline=1;size=15;rotation=90;" vertex="1" parent="1">
          <mxGeometry x="414.25" y="872.5" width="20" height="197.5" as="geometry" />
        </mxCell>
        <mxCell id="GwMLZLMW36V3GU0Clauz-52" value="Bits" style="text;html=1;align=center;verticalAlign=middle;whiteSpace=wrap;rounded=0;" vertex="1" parent="1">
          <mxGeometry x="394.25" y="966.25" width="60" height="10" as="geometry" />
        </mxCell>
      </root>
    </mxGraphModel>
  </diagram>
</mxfile>
